<svg xmlns="http://www.w3.org/2000/svg" fill="none" viewBox="66.72 57.1 674.28 80.59">
<rect x="486.744" y="81.3125" width="27.1129" height="13.2067" fill="#B9AAFD"/>
<rect x="502.56" y="103.321" width="27.1129" height="15.4079" fill="white"/>
<rect x="452.853" y="57.0996" width="27.1129" height="13.2067" fill="white"/>
<rect x="502.56" y="127.536" width="27.1129" height="8.80448" fill="#B9AAFD"/>
<rect x="470.928" y="103.321" width="24.8535" height="15.4079" fill="white"/>
<rect x="470.928" y="127.536" width="24.8535" height="8.80448" fill="white"/>
<rect x="437.037" y="103.321" width="24.8535" height="15.4079" fill="#B9AAFD"/>
<rect x="437.037" y="127.536" width="24.8535" height="8.80448" fill="white"/>
<rect x="403.146" y="103.321" width="27.1129" height="15.4079" fill="white"/>
<rect x="418.962" y="81.3125" width="27.1129" height="13.2067" fill="white"/>
<rect x="403.146" y="127.536" width="27.1129" height="8.80448" fill="white"/>
<path d="M556.785 113.133V81.3115H564.176L572.768 110.724H573.368L581.96 81.3115H589.351V113.133H585.609V83.8118H584.963L576.417 113.133H569.719L561.173 83.8118H560.526V113.133H556.785Z" fill="white"/>
<path d="M606.915 113.133V81.3115H626.825V84.7665H610.796V95.4041H625.531V98.859H610.796V109.678H627.056V113.133H606.915Z" fill="white"/>
<path d="M643.107 113.133V81.3115H656.179C658.181 81.3115 659.936 81.66 661.445 82.3571C662.985 83.0238 664.186 83.9937 665.049 85.2665C665.911 86.5091 666.342 88.0093 666.342 89.767V90.2671C666.342 92.3583 665.834 94.01 664.818 95.2222C663.801 96.4345 662.6 97.2528 661.214 97.677V98.3135C662.323 98.3438 663.232 98.7075 663.94 99.4045C664.679 100.071 665.049 101.087 665.049 102.45V113.133H661.214V102.905C661.214 101.996 660.953 101.299 660.429 100.814C659.936 100.329 659.182 100.086 658.166 100.086H646.987V113.133H643.107ZM646.987 96.6315H655.81C657.935 96.6315 659.567 96.1314 660.706 95.1313C661.877 94.1009 662.462 92.6765 662.462 90.8581V90.5399C662.462 88.7215 661.892 87.3122 660.753 86.3121C659.613 85.2817 657.966 84.7665 655.81 84.7665H646.987V96.6315Z" fill="white"/>
<path d="M682.411 113.133V81.3115H686.291V95.1768H686.938L700.611 81.3115H705.785L690.033 97.0406L706.339 113.133H701.027L686.938 98.9954H686.291V113.133H682.411Z" fill="white"/>
<path d="M720.767 113.133V81.3115H724.648V109.678H741V113.133H720.767Z" fill="white"/>
<path d="M556.785 137.468V135.951H558.293V127.927H556.785V126.411H562.482C563.157 126.411 563.745 126.526 564.248 126.758C564.751 126.979 565.141 127.3 565.42 127.722C565.709 128.132 565.853 128.622 565.853 129.191V129.349C565.853 129.854 565.757 130.27 565.564 130.596C565.371 130.923 565.136 131.176 564.858 131.355C564.59 131.534 564.334 131.66 564.087 131.734V131.987C564.334 132.05 564.596 132.176 564.874 132.366C565.163 132.545 565.404 132.797 565.596 133.124C565.8 133.45 565.901 133.877 565.901 134.403V134.561C565.901 135.172 565.757 135.693 565.468 136.125C565.179 136.557 564.778 136.888 564.264 137.12C563.761 137.352 563.178 137.468 562.515 137.468H556.785ZM560.043 135.92H562.306C562.884 135.92 563.338 135.783 563.67 135.509C564.002 135.235 564.168 134.856 564.168 134.372V134.23C564.168 133.745 564.002 133.366 563.67 133.092C563.349 132.818 562.894 132.682 562.306 132.682H560.043V135.92ZM560.043 131.118H562.306C562.852 131.118 563.29 130.986 563.622 130.723C563.954 130.449 564.12 130.08 564.12 129.617V129.459C564.12 128.996 563.954 128.633 563.622 128.369C563.301 128.095 562.862 127.959 562.306 127.959H560.043V131.118Z" fill="white"/>
<path d="M573.404 137.468V133.456L569.503 126.411H571.462L574.158 131.418H574.399L577.095 126.411H579.053L575.153 133.456V137.468H573.404Z" fill="white"/>
<path d="M589.063 137.468L592.273 126.411H595.322L598.516 137.468H596.735L595.996 134.861H591.599L590.86 137.468H589.063ZM592.032 133.282H595.563L593.926 127.469H593.669L592.032 133.282Z" fill="#B9AAFD"/>
<path d="M602.927 137.468V126.411H606.266L609.315 136.33H609.572V126.411H611.289V137.468H607.951L604.902 127.532H604.645V137.468H602.927Z" fill="#B9AAFD"/>
<path d="M620.422 137.689C619.619 137.689 618.902 137.52 618.271 137.183C617.64 136.836 617.142 136.33 616.778 135.667C616.415 135.004 616.233 134.193 616.233 133.234V130.644C616.233 129.201 616.634 128.101 617.437 127.343C618.239 126.574 619.325 126.189 620.695 126.189C622.043 126.189 623.081 126.553 623.808 127.279C624.536 127.995 624.9 128.959 624.9 130.17V130.249H623.183V130.123C623.183 129.67 623.092 129.264 622.91 128.906C622.728 128.538 622.455 128.248 622.091 128.038C621.727 127.827 621.262 127.722 620.695 127.722C619.839 127.722 619.17 127.98 618.688 128.496C618.207 129.001 617.966 129.707 617.966 130.612V133.266C617.966 134.161 618.207 134.872 618.688 135.398C619.17 135.914 619.844 136.172 620.711 136.172C621.567 136.172 622.193 135.941 622.589 135.477C622.985 135.014 623.183 134.414 623.183 133.677V133.471H620.165V132.002H624.9V137.468H623.295V136.346H623.038C622.942 136.546 622.797 136.752 622.605 136.962C622.423 137.173 622.155 137.347 621.802 137.483C621.46 137.62 621 137.689 620.422 137.689Z" fill="#B9AAFD"/>
<path d="M630.022 137.468V126.411H631.755V135.92H637.164V137.468H630.022Z" fill="#B9AAFD"/>
<path d="M641.641 137.468V126.411H648.72V127.959H643.375V131.134H648.27V132.682H643.375V135.92H648.8V137.468H641.641Z" fill="#B9AAFD"/>
<path d="M660.476 137.468V126.411H662.209V135.92H667.618V137.468H660.476Z" fill="#B9AAFD"/>
<path d="M671.261 137.468L674.471 126.411H677.52L680.714 137.468H678.933L678.194 134.861H673.797L673.058 137.468H671.261ZM674.23 133.282H677.761L676.124 127.469H675.867L674.23 133.282Z" fill="#B9AAFD"/>
<path d="M684.708 137.468V135.951H686.217V127.927H684.708V126.411H690.406C691.08 126.411 691.669 126.526 692.171 126.758C692.674 126.979 693.065 127.3 693.343 127.722C693.632 128.132 693.776 128.622 693.776 129.191V129.349C693.776 129.854 693.68 130.27 693.488 130.596C693.295 130.923 693.06 131.176 692.781 131.355C692.514 131.534 692.257 131.66 692.011 131.734V131.987C692.257 132.05 692.519 132.176 692.797 132.366C693.086 132.545 693.327 132.797 693.52 133.124C693.723 133.45 693.825 133.877 693.825 134.403V134.561C693.825 135.172 693.68 135.693 693.391 136.125C693.102 136.557 692.701 136.888 692.187 137.12C691.685 137.352 691.101 137.468 690.438 137.468H684.708ZM687.966 135.92H690.229C690.807 135.92 691.262 135.783 691.594 135.509C691.925 135.235 692.091 134.856 692.091 134.372V134.23C692.091 133.745 691.925 133.366 691.594 133.092C691.273 132.818 690.818 132.682 690.229 132.682H687.966V135.92ZM687.966 131.118H690.229C690.775 131.118 691.214 130.986 691.545 130.723C691.877 130.449 692.043 130.08 692.043 129.617V129.459C692.043 128.996 691.877 128.633 691.545 128.369C691.224 128.095 690.786 127.959 690.229 127.959H687.966V131.118Z" fill="#B9AAFD"/>
<path d="M702.477 137.689C701.632 137.689 700.883 137.541 700.23 137.247C699.577 136.952 699.064 136.52 698.689 135.951C698.325 135.372 698.143 134.672 698.143 133.85V133.456H699.861V133.85C699.861 134.63 700.096 135.214 700.567 135.604C701.049 135.993 701.685 136.188 702.477 136.188C703.28 136.188 703.884 136.025 704.291 135.699C704.697 135.362 704.901 134.93 704.901 134.403C704.901 134.056 704.804 133.771 704.612 133.55C704.419 133.329 704.146 133.155 703.793 133.029C703.44 132.892 703.017 132.766 702.525 132.65L701.931 132.508C701.214 132.339 700.588 132.134 700.053 131.892C699.529 131.639 699.123 131.307 698.834 130.897C698.545 130.486 698.4 129.959 698.4 129.317C698.4 128.664 698.561 128.106 698.882 127.643C699.213 127.179 699.668 126.821 700.246 126.569C700.824 126.316 701.503 126.189 702.284 126.189C703.066 126.189 703.761 126.321 704.371 126.584C704.992 126.848 705.478 127.237 705.831 127.753C706.185 128.269 706.361 128.917 706.361 129.696V130.265H704.644V129.696C704.644 129.222 704.542 128.838 704.339 128.543C704.146 128.248 703.873 128.032 703.52 127.895C703.167 127.759 702.755 127.69 702.284 127.69C701.6 127.69 701.065 127.832 700.679 128.117C700.305 128.39 700.118 128.775 700.118 129.27C700.118 129.607 700.198 129.886 700.358 130.107C700.53 130.317 700.776 130.491 701.097 130.628C701.418 130.765 701.819 130.886 702.3 130.991L702.894 131.134C703.622 131.291 704.264 131.497 704.82 131.75C705.377 131.992 705.815 132.323 706.136 132.745C706.457 133.166 706.618 133.708 706.618 134.372C706.618 135.035 706.447 135.614 706.104 136.109C705.773 136.604 705.296 136.994 704.676 137.278C704.055 137.552 703.322 137.689 702.477 137.689Z" fill="#B9AAFD"/>
<path d="M66.7212 113V86.9635H77.2474C78.884 86.9635 80.3222 87.2858 81.5621 87.9306C82.8019 88.5753 83.7814 89.4927 84.5005 90.683C85.2196 91.8484 85.5791 93.237 85.5791 94.8488V95.3696C85.5791 96.9565 85.2072 98.3452 84.4633 99.5354C83.7442 100.726 82.7523 101.643 81.4877 102.288C80.2478 102.933 78.8344 103.255 77.2474 103.255H71.2218V113H66.7212ZM71.2218 99.2006H76.8011C78.0905 99.2006 79.1196 98.8535 79.8883 98.1592C80.6818 97.4649 81.0785 96.5102 81.0785 95.2952V94.9232C81.0785 93.7082 80.6942 92.7535 79.9255 92.0592C79.1568 91.3649 78.1153 91.0177 76.8011 91.0177H71.2218V99.2006ZM106.168 113.521C102.944 113.521 100.366 112.628 98.4314 110.843C96.5221 109.033 95.5674 106.441 95.5674 103.069V96.8946C95.5674 93.5222 96.5221 90.9434 98.4314 89.158C100.366 87.3478 102.944 86.4428 106.168 86.4428C109.416 86.4428 111.995 87.3478 113.905 89.158C115.814 90.9434 116.769 93.5222 116.769 96.8946V103.069C116.769 106.441 115.814 109.033 113.905 110.843C111.995 112.628 109.416 113.521 106.168 113.521ZM106.168 109.504C108.102 109.504 109.602 108.946 110.669 107.83C111.76 106.689 112.305 105.152 112.305 103.218V96.7458C112.305 94.8116 111.76 93.2866 110.669 92.1708C109.602 91.0301 108.102 90.4598 106.168 90.4598C104.259 90.4598 102.758 91.0301 101.667 92.1708C100.601 93.2866 100.068 94.8116 100.068 96.7458V103.218C100.068 105.152 100.601 106.689 101.667 107.83C102.758 108.946 104.259 109.504 106.168 109.504ZM130.344 113L126.736 86.9635H131.162L133.989 109.913H134.621L138.266 86.9635H146.04L149.685 109.913H150.317L153.107 86.9635H157.57L153.925 113H146.151L142.469 89.6043H141.837L138.117 113H130.344ZM168.342 113V86.9635H184.931V91.0177H172.843V97.8616H183.89V101.916H172.843V108.946H185.117V113H168.342ZM196.077 113V86.9635H207.198C208.835 86.9635 210.261 87.2486 211.476 87.819C212.691 88.3893 213.633 89.1952 214.303 90.2366C214.997 91.2533 215.344 92.4807 215.344 93.919V94.3281C215.344 95.9399 214.96 97.2293 214.191 98.1964C213.422 99.1635 212.492 99.8702 211.401 100.316V100.912C212.369 100.961 213.125 101.296 213.67 101.916C214.241 102.536 214.526 103.366 214.526 104.408V113H210.062V105.04C210.062 104.42 209.889 103.924 209.542 103.552C209.219 103.156 208.686 102.957 207.942 102.957H200.578V113H196.077ZM200.578 98.9031H206.752C208.041 98.9031 209.046 98.5683 209.765 97.8988C210.509 97.2045 210.881 96.287 210.881 95.1464V94.8116C210.881 93.6462 210.521 92.7287 209.802 92.0592C209.083 91.3649 208.066 91.0177 206.752 91.0177H200.578V98.9031ZM226.645 113V86.9635H243.234V91.0177H231.146V97.8616H242.193V101.916H231.146V108.946H243.42V113H226.645ZM253.525 113V109.057H257.021V90.9062H253.525V86.9635H264.125C267.597 86.9635 270.25 87.8438 272.085 89.6043C273.92 91.3649 274.838 94.0057 274.838 97.5269V102.437C274.838 105.958 273.92 108.599 272.085 110.359C270.25 112.12 267.597 113 264.125 113H253.525ZM261.485 108.946H264.163C266.27 108.946 267.832 108.4 268.849 107.309C269.866 106.218 270.374 104.644 270.374 102.585V97.4153C270.374 95.3076 269.866 93.7206 268.849 92.6543C267.832 91.5633 266.27 91.0177 264.163 91.0177H261.485V108.946ZM301.875 113V109.057H305.372V90.9062H301.875V86.9635H315.191C316.753 86.9635 318.117 87.2362 319.283 87.7818C320.473 88.3025 321.39 89.0588 322.035 90.0507C322.705 91.0177 323.039 92.1832 323.039 93.547V93.8818C323.039 95.072 322.816 96.0515 322.37 96.8202C321.924 97.5889 321.39 98.184 320.77 98.6055C320.151 99.0271 319.555 99.3246 318.985 99.4982V100.131C319.555 100.279 320.163 100.564 320.808 100.986C321.477 101.383 322.035 101.978 322.481 102.771C322.953 103.54 323.188 104.544 323.188 105.784V106.156C323.188 107.57 322.841 108.797 322.147 109.838C321.477 110.855 320.547 111.636 319.357 112.182C318.192 112.727 316.84 113 315.303 113H301.875ZM309.835 108.946H314.782C315.972 108.946 316.915 108.661 317.609 108.09C318.328 107.495 318.688 106.664 318.688 105.598V105.263C318.688 104.197 318.34 103.379 317.646 102.809C316.952 102.213 315.997 101.916 314.782 101.916H309.835V108.946ZM309.835 97.8616H314.745C315.886 97.8616 316.803 97.5765 317.497 97.0061C318.216 96.4358 318.576 95.6423 318.576 94.6257V94.2537C318.576 93.237 318.216 92.4436 317.497 91.8732C316.803 91.3029 315.886 91.0177 314.745 91.0177H309.835V97.8616ZM340.649 113V103.813L331.685 86.9635H336.706L342.583 98.4567H343.215L349.092 86.9635H354.076L345.112 103.813V113H340.649Z" fill="#B9AAFD"/>
</svg>